<svg xmlns="http://www.w3.org/2000/svg" width="167.595" height="167.595" viewBox="0 0 167.595 167.595"><defs><style>.a{fill:#fdc24f;}</style></defs><g transform="translate(0 11.173)"><path class="a" d="M153.629,107.418H81V34.793A2.793,2.793,0,0,0,78.211,32a78.211,78.211,0,1,0,78.211,78.211A2.793,2.793,0,0,0,153.629,107.418ZM78.211,182.836a72.625,72.625,0,0,1-2.793-145.2v72.572A2.793,2.793,0,0,0,78.211,113h72.572A72.717,72.717,0,0,1,78.211,182.836Z" transform="translate(0 -32)"/></g><g transform="translate(86.591)"><path class="a" d="M250.793,0A2.793,2.793,0,0,0,248,2.793V78.211A2.793,2.793,0,0,0,250.793,81h75.418A2.793,2.793,0,0,0,329,78.211,78.3,78.3,0,0,0,250.793,0Zm2.793,75.418V5.64a72.728,72.728,0,0,1,69.778,69.778Z" transform="translate(-248)"/></g></svg>