<svg xmlns="http://www.w3.org/2000/svg" width="177.804" height="167.595" viewBox="0 0 177.804 167.595"><defs><style>.a{fill:#fdc24f;}.b{fill:none;stroke:#fdc24f;stroke-width:4px;}</style></defs><g transform="translate(0 0)"><path class="a" d="M175.16,165.2H162.6v-8.528a.882.882,0,0,0-1.764,0V165.2H144.956v-8.528a.882.882,0,0,0-1.764,0V165.2H127.314v-8.528a.882.882,0,1,0-1.764,0V165.2H109.673v-8.528a.882.882,0,0,0-1.764,0V165.2H92.031v-8.528a.882.882,0,1,0-1.764,0V165.2H74.389v-8.528a.882.882,0,0,0-1.764,0V165.2H56.748v-8.528a.882.882,0,0,0-1.764,0V165.2H39.106v-8.528a.882.882,0,0,0-1.764,0V165.2H5.292V145.2h7.085a.882.882,0,1,0,0-1.764H5.292V127.562h7.085a.882.882,0,0,0,0-1.764H5.292V109.92h7.085a.882.882,0,1,0,0-1.764H5.292V92.279h7.085a.882.882,0,1,0,0-1.764H5.292V74.637h7.085a.882.882,0,1,0,0-1.764H5.292V57h7.085a.882.882,0,0,0,0-1.764H5.292V39.354h7.085a.882.882,0,1,0,0-1.764H5.292V21.712h7.085a.882.882,0,0,0,0-1.764H5.292V5.54A2.646,2.646,0,0,0,0,5.54v162.3a2.647,2.647,0,0,0,2.646,2.646H175.158a2.646,2.646,0,0,0,0-5.292Z" transform="translate(0 -2.894)"/><rect class="b" width="18.083" height="119.601" transform="translate(27.599 23.998)"/><rect class="b" width="18.083" height="73.213" transform="translate(65.969 70.385)"/><rect class="b" width="18.083" height="98.352" transform="translate(103.9 45.245)"/><rect class="b" width="18.083" height="86.444" transform="translate(143.594 57.154)"/></g></svg>