<svg xmlns="http://www.w3.org/2000/svg" width="165.167" height="165.167" viewBox="0 0 165.167 165.167"><defs><style>.a{fill:#fdc24f;}</style></defs><path class="a" d="M94.1,76.777a12.089,12.089,0,0,0,10.8-17.527L122.742,45.2a12.064,12.064,0,0,0,15.577.034L155.9,59.2a12.1,12.1,0,1,0,19.483-2.915l22.711-33.052a12.144,12.144,0,1,0-3.984-2.748L171.4,53.541a12.076,12.076,0,0,0-12.487,1.875l-17.581-13.97a12.1,12.1,0,1,0-21.586-.047L101.905,55.45A12.094,12.094,0,1,0,94.1,76.777ZM202.81,4.839a7.258,7.258,0,1,1-7.258,7.258A7.266,7.266,0,0,1,202.81,4.839ZM166.68,57.421a7.258,7.258,0,1,1-7.258,7.258A7.266,7.266,0,0,1,166.68,57.421ZM130.55,28.711a7.258,7.258,0,1,1-7.258,7.258A7.266,7.266,0,0,1,130.55,28.711ZM94.1,57.421a7.258,7.258,0,1,1-7.258,7.258A7.266,7.266,0,0,1,94.1,57.421Z" transform="translate(-55.548 0)"/><path class="a" d="M162.747,411.533H85.164a2.419,2.419,0,0,0,0,4.839h75.164v6.452H7.258A2.427,2.427,0,0,1,4.839,420.4V389.919a2.419,2.419,0,1,0-4.839,0V420.4a7.265,7.265,0,0,0,7.258,7.258H162.747a2.419,2.419,0,0,0,2.419-2.419V413.952A2.419,2.419,0,0,0,162.747,411.533Z" transform="translate(0 -262.496)"/><path class="a" d="M2.419,118.875a2.419,2.419,0,0,0,2.419-2.419V4.839h6.452V151.456a2.419,2.419,0,0,0,2.419,2.419H74.2a2.419,2.419,0,1,0,0-4.839H16.13V2.419A2.419,2.419,0,0,0,13.71,0H2.419A2.419,2.419,0,0,0,0,2.419V116.455A2.419,2.419,0,0,0,2.419,118.875Z"/><path class="a" d="M91.419,284A2.42,2.42,0,0,0,89,286.419v45.163A2.42,2.42,0,0,0,91.419,334h16.13a2.42,2.42,0,0,0,2.419-2.419V286.419A2.419,2.419,0,0,0,107.549,284Zm13.71,45.163H93.839V288.839H105.13Z" transform="translate(-60.289 -192.384)"/><path class="a" d="M202.419,195A2.419,2.419,0,0,0,200,197.419v73.873a2.419,2.419,0,0,0,2.419,2.419h16.13a2.419,2.419,0,0,0,2.419-2.419V197.419A2.419,2.419,0,0,0,218.549,195Zm13.71,73.873H204.839V199.839H216.13Z" transform="translate(-135.482 -132.095)"/><path class="a" d="M314.419,284A2.419,2.419,0,0,0,312,286.419v45.163A2.419,2.419,0,0,0,314.419,334h16.13a2.42,2.42,0,0,0,2.419-2.419V286.419A2.419,2.419,0,0,0,330.549,284Zm13.71,45.163H316.839V288.839H328.13Z" transform="translate(-211.352 -192.384)"/><path class="a" d="M426.419,121A2.419,2.419,0,0,0,424,123.419v97.745a2.419,2.419,0,0,0,2.419,2.419h16.13a2.419,2.419,0,0,0,2.419-2.419V123.419A2.419,2.419,0,0,0,442.549,121Zm13.71,97.745H428.839V125.839H440.13Z" transform="translate(-287.221 -81.967)"/></svg>